<svg xmlns="http://www.w3.org/2000/svg" width="47" height="54" viewBox="0 0 47 54"><path fill-rule="evenodd" clip-rule="evenodd" fill="#333" d="M20.74 20h-19.47c-.67 0-1.26.6-1.26 1.26l-.01 28.54c0 .66.6 1.2 1.27 1.2h19.47c.66 0 1.26-.6 1.26-1.26v-28.48c0-.66-.6-1.26-1.26-1.26zm-9.8 1.25c.24 0 .43.19.43.43s-.19.43-.43.43-.43-.19-.43-.43.19-.43.43-.43zm.06 29.25c-.55 0-1-.45-1-1s.45-1 1-1 1 .45 1 1-.45 1-1 1zm9-2.5h-18v-25h18v25zm13.74-37h-25.48c-.7 0-1.26.54-1.26 1.25v6.75h2v-4h24v32h-10v2.74c0 .66-.6 1.26-1.26 1.26h12.01c.7 0 1.26-.54 1.26-1.25v-37.5c-.01-.71-.57-1.25-1.27-1.25zm-12.74 2.5c-.28 0-.5-.22-.5-.5s.22-.5.5-.5.5.22.5.5-.22.5-.5.5zm24.5-10.5h-31c-.83 0-1.5.65-1.5 1.5v5.5h2v-3h30v40h-9v2.75c0 .71-.56 1.25-1.26 1.25h10.76c.83 0 1.5-.65 1.5-1.5v-45c0-.85-.67-1.5-1.5-1.5zm-15.5 2.75c-.41 0-.75-.34-.75-.75s.34-.75.75-.75.75.34.75.75-.34.75-.75.75z"/></svg>