<svg xmlns="http://www.w3.org/2000/svg" width="33" height="54" viewBox="0 0 33 54"><path fill="#333" d="M30 51h1.5c.88 0 1.5-.63 1.5-1.5v-45c0-.87-.62-1.5-1.5-1.5l-1.5.01v4.99h1v38h-1v5zm-1 .51v-49.02c0-.86-1-1.49-1.5-1.49l-6 1.5c-.64.16-1.5 1.17-1.5 2.12v44.76c0 .95.86 1.96 1.5 2.12 0 0 5.5 1.5 6 1.5s1.5-.52 1.5-1.49zm-29-46.81v44.6c0 .94.77 1.7 1.72 1.7h8.28c-.46-.43-1-1.03-1-1.7v-44.6c0-.67.54-1.27 1-1.7h-8.28c-.95 0-1.72.77-1.72 1.7zm10 0v44.6c0 .94.77 1.7 1.72 1.7h8.28c-.46-.43-1-1.03-1-1.7v-44.6c0-.67.54-1.27 1-1.7h-8.28c-.95 0-1.72.77-1.72 1.7z"/></svg>